<?xml version="1.0" encoding="UTF-8" standalone="no"?>
<!-- Generator: Adobe Illustrator 19.0.0, SVG Export Plug-In . SVG Version: 6.00 Build 0)  -->

<svg
        xmlns:dc="http://purl.org/dc/elements/1.1/"
        xmlns:cc="http://creativecommons.org/ns#"
        xmlns:rdf="http://www.w3.org/1999/02/22-rdf-syntax-ns#"
        xmlns="http://www.w3.org/2000/svg"
        xmlns:sodipodi="http://sodipodi.sourceforge.net/DTD/sodipodi-0.dtd"
        xmlns:inkscape="http://www.inkscape.org/namespaces/inkscape"
        version="1.1"
        id="Capa_1"
        x="0px"
        y="0px"
        viewBox="0 0 512 512"
        style="enable-background:new 0 0 512 512;"
        xml:space="preserve"
        sodipodi:docname="quotation(1).svg"
        inkscape:export-filename="/home/dector/Downloads/logo_512x512.png"
        inkscape:export-xdpi="101.91"
        inkscape:export-ydpi="101.91"
        inkscape:version="0.92.4 (5da689c313, 2019-01-14)"><metadata
   id="metadata73"><rdf:RDF><cc:Work
       rdf:about=""><dc:format>image/svg+xml</dc:format><dc:type
         rdf:resource="http://purl.org/dc/dcmitype/StillImage" /></cc:Work></rdf:RDF></metadata><defs
   id="defs71" /><sodipodi:namedview
   pagecolor="#ffffff"
   bordercolor="#666666"
   borderopacity="1"
   objecttolerance="10"
   gridtolerance="10"
   guidetolerance="10"
   inkscape:pageopacity="0"
   inkscape:pageshadow="2"
   inkscape:window-width="1920"
   inkscape:window-height="1080"
   id="namedview69"
   showgrid="false"
   inkscape:zoom="0.4609375"
   inkscape:cx="144.27119"
   inkscape:cy="256"
   inkscape:window-x="0"
   inkscape:window-y="0"
   inkscape:window-maximized="0"
   inkscape:current-layer="Capa_1" />
<path
   style="fill:#f26636;fill-opacity:1"
   d="M67.427,10.499h181.146C280.289,10.499,306,36.21,306,67.926v171.896  c0,31.716-25.711,57.427-57.427,57.427h-94.604v61.281l-61.281-61.281h-25.26C35.711,297.249,10,271.538,10,239.822V67.926  C10,36.21,35.711,10.499,67.427,10.499z"
   id="path2" />
<path
   id="SVGCleanerId_0"
   style="fill:#4DBAF6;"
   d="M452.333,200.499H295.667c-27.43,0-49.667,22.237-49.667,49.667v148.667  c0,27.43,22.237,49.667,49.667,49.667h26.667v53l53-53h77c27.43,0,49.667-22.237,49.667-49.667V250.165  C502,222.735,479.763,200.499,452.333,200.499z" />
<g
   id="g9">
	<path
   style="fill:#4DBAF6;"
   d="M396.086,384.334v-26.933c17.284-1.573,25.923-14.085,25.923-37.538h-25.928   c-2.86,0-5.179-2.319-5.179-5.179v-43.508c0-2.86,2.319-5.179,5.179-5.179h48.692c2.86,0,5.179,2.319,5.179,5.179v46.835   C449.952,360.205,431.998,382.314,396.086,384.334z"
   id="path5" />
	<path
   style="fill:#4DBAF6;"
   d="M303.232,384.334v-26.933c17.284-1.573,25.923-14.085,25.923-37.538h-25.928   c-2.86,0-5.179-2.319-5.179-5.179v-43.508c0-2.86,2.319-5.179,5.179-5.179h48.692c2.86,0,5.179,2.319,5.179,5.179v46.835   C357.098,360.205,339.144,382.314,303.232,384.334z"
   id="path7" />
</g>
<g
   id="g12">
	<path
   id="SVGCleanerId_0_1_"
   style="fill:#6373ff;fill-opacity:1"
   d="M452.333,200.499H295.667c-27.43,0-49.667,22.237-49.667,49.667v148.667   c0,27.43,22.237,49.667,49.667,49.667h26.667v53l53-53h77c27.43,0,49.667-22.237,49.667-49.667V250.165   C502,222.735,479.763,200.499,452.333,200.499z" />
</g>
<g
   id="g22">
	<path
   style="fill:#FFFFFF;"
   d="M133.922,88.135v29.926c-19.204,1.747-28.803,15.65-28.803,41.709h28.809   c3.178,0,5.754,2.576,5.754,5.754v48.342c0,3.178-2.576,5.754-5.754,5.754H79.825c-3.178,0-5.754-2.576-5.754-5.754v-52.039   C74.071,114.945,94.019,90.379,133.922,88.135z"
   id="path14" />
	<path
   style="fill:#FFFFFF;"
   d="M236.156,88.135v29.926c-19.204,1.747-28.803,15.65-28.803,41.709h28.809   c3.178,0,5.754,2.576,5.754,5.754v48.342c0,3.178-2.576,5.754-5.754,5.754h-54.103c-3.178,0-5.754-2.576-5.754-5.754v-52.039   C176.305,114.945,196.254,90.379,236.156,88.135z"
   id="path16" />
	<path
   style="fill:#FFFFFF;"
   d="M396.086,384.334v-26.933c17.284-1.573,25.923-14.085,25.923-37.538h-25.928   c-2.86,0-5.179-2.319-5.179-5.179v-43.508c0-2.86,2.319-5.179,5.179-5.179h48.692c2.86,0,5.179,2.319,5.179,5.179v46.835   C449.952,360.205,431.998,382.314,396.086,384.334z"
   id="path18" />
	<path
   style="fill:#FFFFFF;"
   d="M303.232,384.334v-26.933c17.284-1.573,25.923-14.085,25.923-37.538h-25.928   c-2.86,0-5.179-2.319-5.179-5.179v-43.508c0-2.86,2.319-5.179,5.179-5.179h48.692c2.86,0,5.179,2.319,5.179,5.179v46.835   C357.098,360.205,339.144,382.314,303.232,384.334z"
   id="path20" />
</g>
<path
   d="M134.828,128.019c5.15-0.469,9.094-4.787,9.094-9.959V88.135c0-2.75-1.132-5.378-3.13-7.267  c-1.999-1.889-4.681-2.864-7.432-2.717c-31.609,1.778-69.29,17.738-69.29,83.676v52.04c0,8.687,7.067,15.754,15.755,15.754h54.103  c8.687,0,15.754-7.067,15.754-15.754v-48.342c0-8.687-7.067-15.754-15.754-15.754H115.73  C118.468,129.506,129.672,128.489,134.828,128.019z M105.118,169.769h24.563v39.851H84.07v-47.794  c0-46.01,20.461-58.859,39.852-62.487v10.515c-13.392,4.076-28.804,16.113-28.804,49.915  C95.118,165.292,99.596,169.769,105.118,169.769z"
   id="path24" />
<path
   d="M395.18,347.442c-5.15,0.469-9.094,4.787-9.094,9.959v26.933c0,2.75,1.132,5.378,3.131,7.267  c1.861,1.76,4.321,2.733,6.869,2.733c0.187,0,0.374-0.005,0.562-0.016c28.879-1.625,63.305-16.182,63.305-76.307v-46.835  c0-8.37-6.81-15.179-15.179-15.179h-48.692c-8.369,0-15.179,6.809-15.179,15.179v43.508c0,8.37,6.81,15.179,15.179,15.179h15.237  C408.773,346.204,399.834,347.018,395.18,347.442z M406.086,365.528c12.207-3.952,25.923-15.179,25.923-45.665  c0-5.523-4.478-10-10-10h-21.106v-33.866h39.05v42.014c0,39.702-17.161,51.483-33.866,55.011v-7.494H406.086z"
   id="path26" />
<path
   d="M288.048,271.176v43.508c0,8.37,6.81,15.179,15.179,15.179h15.238c-2.545,16.34-11.484,17.155-16.139,17.579  c-5.15,0.469-9.094,4.787-9.094,9.959v26.933c0,2.75,1.132,5.378,3.13,7.267c1.862,1.76,4.322,2.733,6.87,2.733  c0.187,0,0.374-0.005,0.562-0.016c28.879-1.625,63.304-16.182,63.304-76.307v-46.835c0-8.37-6.81-15.179-15.179-15.179h-48.692  C294.857,255.997,288.048,262.806,288.048,271.176z M308.048,275.997h39.05v42.014c0,39.702-17.16,51.483-33.865,55.011v-7.495  c12.207-3.953,25.923-15.18,25.923-45.665c0-5.523-4.478-10-10-10h-21.107v-33.865H308.048z"
   id="path28" />
<path
   d="M452.333,190.499h-31.906c-5.522,0-10,4.477-10,10s4.478,10,10,10h31.906c21.872,0,39.667,17.794,39.667,39.667v148.667  c0,21.872-17.795,39.667-39.667,39.667h-77c-2.652,0-5.195,1.054-7.071,2.929l-35.929,35.929v-28.859c0-5.523-4.478-10-10-10  h-26.666c-21.872,0-39.667-17.794-39.667-39.667V250.165c0-21.872,17.795-39.667,39.667-39.667H333c5.522,0,10-4.477,10-10  s-4.478-10-10-10h-37.333c-17.272,0-32.845,7.384-43.751,19.152v-44.128c0-8.687-7.067-15.754-15.754-15.754h-18.197  c2.737-20.263,13.941-21.281,19.098-21.75c5.15-0.469,9.094-4.787,9.094-9.959V88.135c0-2.75-1.132-5.378-3.13-7.267  c-1.999-1.889-4.692-2.867-7.432-2.717c-31.61,1.778-69.29,17.739-69.29,83.676v52.04c0,8.687,7.067,15.754,15.755,15.754h54.103  c1.262,0,2.484-0.165,3.661-0.447c-2.465,6.534-3.823,13.606-3.823,20.992v148.667c0,32.9,26.767,59.667,59.667,59.667h16.666v43  c0,4.044,2.437,7.691,6.173,9.239c1.237,0.513,2.537,0.762,3.825,0.762c2.603,0,5.16-1.017,7.073-2.929l50.071-50.071h72.857  c32.9,0,59.667-26.766,59.667-59.667V250.165C512,217.265,485.233,190.499,452.333,190.499z M231.916,209.62h-45.611v-47.794  c0-46.009,20.461-58.859,39.852-62.487v10.516c-13.392,4.075-28.804,16.112-28.804,49.914c0,5.523,4.478,10,10,10h24.563V209.62z"
   id="path30" />
<path
   d="M379,210.499c2.63,0,5.21-1.07,7.069-2.93c1.86-1.86,2.931-4.44,2.931-7.07s-1.07-5.21-2.931-7.07  c-1.859-1.86-4.439-2.93-7.069-2.93s-5.21,1.07-7.07,2.93c-1.86,1.86-2.93,4.44-2.93,7.07s1.069,5.21,2.93,7.07  S376.37,210.499,379,210.499z"
   id="path32" />
<path
   d="M306,155.169c-2.63,0-5.21,1.06-7.07,2.93c-1.86,1.85-2.93,4.43-2.93,7.07c0,2.63,1.069,5.21,2.93,7.07s4.44,2.93,7.07,2.93  c2.64,0,5.21-1.07,7.069-2.93c1.86-1.86,2.931-4.44,2.931-7.07c0-2.64-1.07-5.22-2.931-7.07  C311.21,156.229,308.64,155.169,306,155.169z"
   id="path34" />
<path
   d="M199,287.249h-45.031c-5.522,0-10,4.477-10,10v37.139l-44.21-44.21c-1.876-1.875-4.419-2.929-7.071-2.929H67.427  C41.275,287.249,20,265.973,20,239.822V67.926c0-26.151,21.275-47.427,47.427-47.427h181.146c26.152,0,47.427,21.276,47.427,47.427  v59.239c0,5.523,4.478,10,10,10s10-4.477,10-10V67.926c0-37.18-30.247-67.427-67.427-67.427H67.427C30.247,0.499,0,30.746,0,67.926  v171.896c0,37.18,30.247,67.427,67.427,67.427h21.118l58.353,58.352c1.913,1.914,4.471,2.93,7.073,2.93  c1.288,0,2.588-0.25,3.825-0.762c3.736-1.548,6.173-5.194,6.173-9.239v-51.281H199c5.522,0,10-4.477,10-10  S204.522,287.249,199,287.249z"
   id="path36" />
<g
   id="g38">
</g>
<g
   id="g40">
</g>
<g
   id="g42">
</g>
<g
   id="g44">
</g>
<g
   id="g46">
</g>
<g
   id="g48">
</g>
<g
   id="g50">
</g>
<g
   id="g52">
</g>
<g
   id="g54">
</g>
<g
   id="g56">
</g>
<g
   id="g58">
</g>
<g
   id="g60">
</g>
<g
   id="g62">
</g>
<g
   id="g64">
</g>
<g
   id="g66">
</g>
</svg>
